<?xml version="1.0"?><svg width="793.7007874015749" height="1122.5196850393702" xmlns="http://www.w3.org/2000/svg" xmlns:xlink="http://www.w3.org/1999/xlink">
 <defs>
  <linearGradient id="linearGradient568">
   <stop stop-color="#008700" offset="0" id="stop569"/>
   <stop stop-color="#ffffff" stop-opacity="0" offset="1" id="stop570"/>
  </linearGradient>
  <linearGradient y2="1.142858" y1="0.071439" xlink:href="#linearGradient568" x2="0.529412" x1="0.524887" spreadMethod="pad" id="linearGradient571" gradientUnits="objectBoundingBox"/>
 </defs>
 <g>
  <title>Layer 1</title>
  <g externalResourcesRequired="false" id="g573">
   <path fill="#ffffff" fill-rule="evenodd" stroke="black" stroke-width="5" id="path558" d="m162.490997,398.192963c-4.979996,123.384003 -9.960007,246.768951 -4.979996,370.152985c13.832993,3.596069 478.322006,-0.276978 509.582993,3.320068c-3.596985,-134.173096 11.065002,-254.238037 6.638977,-380.112061c-91.292969,-29.324982 -182.586975,-58.648987 -273.879974,-87.973999c-79.121002,31.538025 -158.240997,63.075012 -237.362,94.613007l0,0z"/>
   <path fill="#000000" fill-rule="evenodd" stroke="black" stroke-width="4.36594" id="path560" d="m216.436935,474.948578l3.320007,100.143219l142.749008,2.177246l0,-104.496307l-146.069016,2.175842z"/>
   <path fill="#000000" fill-rule="evenodd" stroke="black" stroke-width="5" id="path561" d="m439.690002,768.346008c-5.809998,-59.755981 1.660004,-167.647034 0,-253.960999c35.134003,-2.490021 136.664001,-9.128998 142.75,0c5.809998,82.71698 2.48999,167.924011 0,250.640991c-47.583008,1.106995 -95.166992,2.213013 -142.75,3.320007l0,0z"/>
   <path fill="#000000" fill-rule="evenodd" stroke="black" stroke-width="5" id="path565" d="m180.727936,290.300964c0.704147,29.325012 -2.811493,53.669006 8.439545,87.973999c20.394745,-1.106995 40.788223,-2.212982 61.181686,-3.320007c0,-29.323975 0,-58.648987 0,-87.973999c-8.438293,-7.192993 -42.19397,2.21402 -63.29158,3.320007l-6.329651,0l0,0l0,0z"/>
   <path fill="#ffffff" fill-rule="evenodd" stroke="black" stroke-width="5" id="path566" d="m542.602966,610.65802c-1.659973,8.29895 -2.48999,16.598999 0,24.89801c6.085999,-0.55304 20.471008,1.382996 18.258057,-1.660034c1.106995,-4.97998 1.382996,-13.278992 -1.660034,-19.919006c-5.532959,-1.935974 -11.065002,-3.872986 -16.598022,-3.31897l0,0z"/>
   <path fill="#ffffff" fill-rule="evenodd" stroke="black" stroke-width="4.97015" id="path557" d="m124.282425,402.992798c92.675995,-46.496368 236.809006,-110.992706 280.518997,-115.192352c99.593018,35.997803 202.504974,56.695648 299.608002,103.492371c10.789001,10.499634 -0.789001,32.698181 -7.427979,38.697815c-97.933044,-33.597107 -192.587006,-66.147797 -292.180023,-103.34491c-92.953003,39.596741 -184.257004,82.493103 -277.209595,122.089844c-13.195801,-6.597107 -8.565704,-42.443115 -3.309402,-45.742767l0,0z"/>
   <path fill="none" fill-rule="evenodd" stroke="black" stroke-width="5" id="path572" d="m46.299389,774.156006c278.859608,-4.97998 429.908619,-2.491028 447.337605,-2.491028c14.109009,0 273.878998,0.001038 265.579987,0.001038"/>
  </g>
 </g>
</svg>